StickNoBills-Regular.ufo
<glyph name="Percent_sign" format="1">
  <advance width="629"/>
  <unicode hex="0025"/>
  <outline>
    <contour>
      <point x="387" y="117" type="curve" smooth="yes"/>
      <point x="387" y="177"/>
      <point x="435" y="225"/>
      <point x="495" y="225" type="curve" smooth="yes"/>
      <point x="555" y="225"/>
      <point x="603" y="177"/>
      <point x="603" y="117" type="curve" smooth="yes"/>
      <point x="603" y="57"/>
      <point x="555" y="9"/>
      <point x="495" y="9" type="curve" smooth="yes"/>
      <point x="435" y="9"/>
      <point x="387" y="57"/>
    </contour>
    <contour>
      <point x="26" y="575" type="curve" smooth="yes"/>
      <point x="26" y="635"/>
      <point x="74" y="683"/>
      <point x="134" y="683" type="curve" smooth="yes"/>
      <point x="194" y="683"/>
      <point x="242" y="635"/>
      <point x="242" y="575" type="curve" smooth="yes"/>
      <point x="242" y="515"/>
      <point x="194" y="467"/>
      <point x="134" y="467" type="curve" smooth="yes"/>
      <point x="74" y="467"/>
      <point x="26" y="515"/>
    </contour>
    <contour>
      <point x="160" y="-23" type="line"/>
      <point x="335" y="716" type="line"/>
      <point x="461" y="716" type="line"/>
      <point x="287" y="-23" type="line"/>
    </contour>
  </outline>
</glyph>
<glyph name="quotesingle" format="1">
  <advance width="227"/>
  <unicode hex="0027"/>
  <outline>
    <contour>
      <point x="177" y="465" type="line"/>
      <point x="50" y="465" type="line"/>
      <point x="50" y="736" type="line"/>
      <point x="177" y="736" type="line"/>
    </contour>
  </outline>
</glyph>
<glyph name="plus" format="1">
  <advance width="475"/>
  <unicode hex="002B"/>
  <outline>
    <contour>
      <point x="425" y="357" type="line"/>
      <point x="425" y="230" type="line"/>
      <point x="300" y="230" type="line"/>
      <point x="300" y="87" type="line"/>
      <point x="173" y="87" type="line"/>
      <point x="173" y="230" type="line"/>
      <point x="50" y="230" type="line"/>
      <point x="50" y="357" type="line"/>
      <point x="173" y="357" type="line"/>
      <point x="173" y="498" type="line"/>
      <point x="300" y="498" type="line"/>
      <point x="300" y="357" type="line"/>
    </contour>
  </outline>
</glyph>
<glyph name="zero" format="1">
  <advance width="1024"/>
  <unicode hex="0030"/>
  <outline>
    <contour>
      <point x="464" y="698" type="line"/>
      <point x="553" y="693"/>
      <point x="647" y="602"/>
      <point x="647" y="353" type="curve" smooth="yes"/>
      <point x="647" y="60"/>
      <point x="531" y="3"/>
      <point x="465" y="0" type="curve"/>
      <point x="465" y="124" type="line"/>
      <point x="520" y="137"/>
      <point x="522" y="248"/>
      <point x="522" y="339" type="curve" smooth="yes"/>
      <point x="522" y="360"/>
      <point x="522" y="371"/>
      <point x="522" y="398" type="curve" smooth="yes"/>
      <point x="522" y="461"/>
      <point x="517" y="560"/>
      <point x="464" y="573" type="curve"/>
    </contour>
    <contour>
      <point x="404" y="698" type="curve"/>
      <point x="404" y="573" type="line"/>
      <point x="351" y="560"/>
      <point x="346" y="461"/>
      <point x="346" y="398" type="curve" smooth="yes"/>
      <point x="346" y="371"/>
      <point x="346" y="360"/>
      <point x="346" y="339" type="curve" smooth="yes"/>
      <point x="346" y="248"/>
      <point x="348" y="137"/>
      <point x="403" y="124" type="curve"/>
      <point x="403" y="0" type="line"/>
      <point x="337" y="3"/>
      <point x="221" y="60"/>
      <point x="221" y="353" type="curve" smooth="yes"/>
      <point x="221" y="602"/>
      <point x="315" y="693"/>
    </contour>
  </outline>
</glyph>
<glyph name="eight" format="1">
  <advance width="486"/>
  <unicode hex="0038"/>
  <outline>
    <contour>
      <point x="212" y="125" type="curve"/>
      <point x="211" y="0" type="line"/>
      <point x="210" y="0" type="line" smooth="yes"/>
      <point x="170" y="0"/>
      <point x="26" y="53"/>
      <point x="26" y="199" type="curve" smooth="yes"/>
      <point x="26" y="269"/>
      <point x="63" y="330"/>
      <point x="91" y="349" type="curve"/>
      <point x="77" y="352"/>
      <point x="33" y="415"/>
      <point x="33" y="499" type="curve" smooth="yes"/>
      <point x="33" y="619"/>
      <point x="144" y="698"/>
      <point x="214" y="698" type="curve"/>
      <point x="214" y="571" type="line"/>
      <point x="196" y="568"/>
      <point x="157" y="551"/>
      <point x="157" y="497" type="curve" smooth="yes"/>
      <point x="157" y="446"/>
      <point x="177" y="424"/>
      <point x="213" y="413" type="curve"/>
      <point x="213" y="283" type="line"/>
      <point x="181" y="274"/>
      <point x="154" y="251"/>
      <point x="154" y="201" type="curve" smooth="yes"/>
      <point x="154" y="165"/>
      <point x="179" y="134"/>
    </contour>
    <contour>
      <point x="274" y="125" type="line"/>
      <point x="307" y="134"/>
      <point x="332" y="165"/>
      <point x="332" y="201" type="curve" smooth="yes"/>
      <point x="332" y="251"/>
      <point x="305" y="274"/>
      <point x="273" y="283" type="curve"/>
      <point x="273" y="413" type="line"/>
      <point x="309" y="424"/>
      <point x="329" y="446"/>
      <point x="329" y="497" type="curve" smooth="yes"/>
      <point x="329" y="551"/>
      <point x="290" y="568"/>
      <point x="272" y="571" type="curve"/>
      <point x="272" y="698" type="line"/>
      <point x="342" y="698"/>
      <point x="452" y="619"/>
      <point x="452" y="499" type="curve" smooth="yes"/>
      <point x="452" y="415"/>
      <point x="409" y="352"/>
      <point x="395" y="349" type="curve"/>
      <point x="423" y="330"/>
      <point x="460" y="269"/>
      <point x="460" y="199" type="curve" smooth="yes"/>
      <point x="460" y="53"/>
      <point x="316" y="0"/>
      <point x="276" y="0" type="curve" smooth="yes"/>
      <point x="275" y="0" type="line"/>
    </contour>
  </outline>
</glyph>
<glyph name="colon" format="1">
  <advance width="250"/>
  <unicode hex="003A"/>
  <outline>
    <contour>
      <point x="50" y="360" type="curve" smooth="yes"/>
      <point x="50" y="402"/>
      <point x="83" y="436"/>
      <point x="125" y="436" type="curve" smooth="yes"/>
      <point x="167" y="436"/>
      <point x="200" y="402"/>
      <point x="200" y="360" type="curve" smooth="yes"/>
      <point x="200" y="318"/>
      <point x="167" y="285"/>
      <point x="125" y="285" type="curve" smooth="yes"/>
      <point x="83" y="285"/>
      <point x="50" y="318"/>
    </contour>
    <contour>
      <point x="50" y="70" type="curve" smooth="yes"/>
      <point x="50" y="112"/>
      <point x="83" y="146"/>
      <point x="125" y="146" type="curve" smooth="yes"/>
      <point x="167" y="146"/>
      <point x="200" y="112"/>
      <point x="200" y="70" type="curve" smooth="yes"/>
      <point x="200" y="28"/>
      <point x="167" y="-5"/>
      <point x="125" y="-5" type="curve" smooth="yes"/>
      <point x="83" y="-5"/>
      <point x="50" y="28"/>
    </contour>
  </outline>
</glyph>
<glyph name="E" format="1">
  <advance width="422"/>
  <unicode hex="0045"/>
  <outline>
    <contour>
      <point x="396" y="141" type="line"/>
      <point x="396" y="0" type="line"/>
      <point x="32" y="0" type="line"/>
      <point x="32" y="700" type="line"/>
      <point x="396" y="700" type="line"/>
      <point x="396" y="560" type="line"/>
      <point x="173" y="560" type="line"/>
      <point x="173" y="418" type="line"/>
      <point x="302" y="418" type="line"/>
      <point x="302" y="277" type="line"/>
      <point x="173" y="277" type="line"/>
      <point x="173" y="141" type="line"/>
    </contour>
  </outline>
</glyph>
<glyph name="M" format="1">
  <advance width="676"/>
  <unicode hex="004D"/>
  <outline>
    <contour>
      <point x="503" y="700" type="line"/>
      <point x="644" y="700" type="line"/>
      <point x="644" y="0" type="line"/>
      <point x="503" y="0" type="line"/>
    </contour>
    <contour>
      <point x="32" y="700" type="line"/>
      <point x="142" y="700" type="line"/>
      <point x="333" y="237" type="line"/>
      <point x="439" y="476" type="line"/>
      <point x="449" y="476" type="line"/>
      <point x="449" y="151" type="line"/>
      <point x="382" y="0" type="line"/>
      <point x="285" y="0" type="line"/>
      <point x="32" y="608" type="line"/>
    </contour>
    <contour>
      <point x="32" y="0" type="line"/>
      <point x="32" y="444" type="line"/>
      <point x="41" y="444" type="line"/>
      <point x="173" y="127" type="line"/>
      <point x="173" y="0" type="line"/>
    </contour>
  </outline>
</glyph>
<glyph name="O" format="1">
  <advance width="508"/>
  <unicode hex="004F"/>
  <outline>
    <contour>
      <point x="281" y="-5" type="curve"/>
      <point x="281" y="137" type="line"/>
      <point x="286" y="137"/>
      <point x="336" y="149"/>
      <point x="337" y="195" type="curve" smooth="yes"/>
      <point x="337" y="508" type="line" smooth="yes"/>
      <point x="337" y="513"/>
      <point x="327" y="563"/>
      <point x="281" y="564" type="curve"/>
      <point x="281" y="705" type="line"/>
      <point x="412" y="705"/>
      <point x="478" y="583"/>
      <point x="478" y="524" type="curve" smooth="yes"/>
      <point x="478" y="195" type="line" smooth="yes"/>
      <point x="478" y="51"/>
      <point x="341" y="-5"/>
    </contour>
    <contour>
      <point x="226" y="-5" type="line"/>
      <point x="166" y="-5"/>
      <point x="30" y="51"/>
      <point x="30" y="195" type="curve" smooth="yes"/>
      <point x="30" y="524" type="line" smooth="yes"/>
      <point x="30" y="584"/>
      <point x="95" y="705"/>
      <point x="227" y="705" type="curve"/>
      <point x="227" y="564" type="line"/>
      <point x="181" y="563"/>
      <point x="171" y="513"/>
      <point x="171" y="508" type="curve" smooth="yes"/>
      <point x="171" y="195" type="line" smooth="yes"/>
      <point x="171" y="149"/>
      <point x="221" y="137"/>
      <point x="226" y="137" type="curve"/>
    </contour>
  </outline>
</glyph>
<glyph name="S" format="1">
  <advance width="497"/>
  <unicode hex="0053"/>
  <outline>
    <contour>
      <point x="216" y="-3" type="line"/>
      <point x="107" y="-3"/>
      <point x="34" y="103"/>
      <point x="33" y="158" type="curve"/>
      <point x="160" y="203" type="line"/>
      <point x="162" y="147"/>
      <point x="216" y="127"/>
      <point x="216" y="127" type="curve"/>
    </contour>
    <contour>
      <point x="271" y="700" type="line"/>
      <point x="377" y="700"/>
      <point x="440" y="589"/>
      <point x="446" y="553" type="curve"/>
      <point x="316" y="510" type="line"/>
      <point x="311" y="557"/>
      <point x="271" y="568"/>
      <point x="271" y="568" type="curve"/>
    </contour>
    <contour>
      <point x="216" y="700" type="curve"/>
      <point x="216" y="568" type="line"/>
      <point x="195" y="562"/>
      <point x="175" y="537"/>
      <point x="175" y="513" type="curve" smooth="yes"/>
      <point x="175" y="446"/>
      <point x="279" y="434"/>
      <point x="346" y="394" type="curve" smooth="yes"/>
      <point x="407" y="358"/>
      <point x="474" y="311"/>
      <point x="474" y="209" type="curve" smooth="yes"/>
      <point x="474" y="96"/>
      <point x="379" y="-3"/>
      <point x="271" y="-3" type="curve"/>
      <point x="271" y="127" type="line"/>
      <point x="295" y="130"/>
      <point x="333" y="150"/>
      <point x="333" y="203" type="curve" smooth="yes"/>
      <point x="333" y="278"/>
      <point x="224" y="294"/>
      <point x="164" y="323" type="curve" smooth="yes"/>
      <point x="93" y="357"/>
      <point x="41" y="403"/>
      <point x="41" y="508" type="curve" smooth="yes"/>
      <point x="41" y="647"/>
      <point x="165" y="699"/>
    </contour>
  </outline>
</glyph>
<glyph name="X" format="1">
  <advance width="464"/>
  <unicode hex="0058"/>
  <outline>
    <contour>
      <point x="426" y="700" type="line"/>
      <point x="302" y="361" type="line"/>
      <point x="438" y="0" type="line"/>
      <point x="293" y="0" type="line"/>
      <point x="232" y="167" type="line"/>
      <point x="171" y="0" type="line"/>
      <point x="26" y="0" type="line"/>
      <point x="162" y="361" type="line"/>
      <point x="38" y="700" type="line"/>
      <point x="175" y="700" type="line"/>
      <point x="232" y="548" type="line"/>
      <point x="289" y="700" type="line"/>
    </contour>
  </outline>
</glyph>
<glyph name="Y" format="1">
  <advance width="479"/>
  <unicode hex="0059"/>
  <outline>
    <contour>
      <point x="269" y="565" type="line"/>
      <point x="308" y="700" type="line"/>
      <point x="453" y="700" type="line"/>
      <point x="344" y="331" type="line"/>
      <point x="335" y="331" type="line"/>
    </contour>
    <contour>
      <point x="26" y="700" type="line"/>
      <point x="173" y="700" type="line"/>
      <point x="303" y="253" type="line"/>
      <point x="303" y="0" type="line"/>
      <point x="157" y="0" type="line"/>
      <point x="157" y="252" type="line"/>
    </contour>
  </outline>
</glyph>
<glyph name="Z" format="1">
  <advance width="418"/>
  <unicode hex="005A"/>
  <outline>
    <contour>
      <point x="182" y="144" type="line"/>
      <point x="392" y="144" type="line"/>
      <point x="392" y="0" type="line"/>
      <point x="26" y="0" type="line"/>
      <point x="26" y="141" type="line"/>
      <point x="236" y="560" type="line"/>
      <point x="26" y="560" type="line"/>
      <point x="26" y="700" type="line"/>
      <point x="392" y="700" type="line"/>
      <point x="392" y="563" type="line"/>
    </contour>
  </outline>
</glyph>
<glyph name="bracketleft" format="1">
  <advance width="258"/>
  <unicode hex="005B"/>
  <outline>
    <contour>
      <point x="244" y="739" type="line"/>
      <point x="244" y="629" type="line"/>
      <point x="183" y="629" type="line"/>
      <point x="180" y="74" type="line"/>
      <point x="244" y="74" type="line"/>
      <point x="244" y="-36" type="line"/>
      <point x="50" y="-36" type="line"/>
      <point x="50" y="739" type="line"/>
    </contour>
  </outline>
</glyph>
<glyph name="grave" format="1">
  <advance width="263"/>
  <unicode hex="0060"/>
  <outline>
    <contour>
      <point x="122" y="605" type="line"/>
      <point x="49" y="757" type="line"/>
      <point x="176" y="757" type="line"/>
      <point x="213" y="605" type="line"/>
    </contour>
  </outline>
</glyph>
<glyph name="c" format="1">
  <advance width="418"/>
  <unicode hex="0063"/>
  <outline>
    <contour>
      <point x="30" y="377" type="line" smooth="yes"/>
      <point x="31" y="421"/>
      <point x="80" y="516"/>
      <point x="185" y="516" type="curve" smooth="yes"/>
      <point x="191" y="516" type="line"/>
      <point x="191" y="400" type="line"/>
      <point x="185" y="400" type="line" smooth="yes"/>
      <point x="154" y="400"/>
      <point x="149" y="377"/>
      <point x="149" y="375" type="curve" smooth="yes"/>
      <point x="149" y="141" type="line" smooth="yes"/>
      <point x="149" y="139"/>
      <point x="154" y="115"/>
      <point x="194" y="115" type="curve"/>
      <point x="199" y="114" type="line"/>
      <point x="199" y="0" type="line"/>
      <point x="194" y="0" type="line" smooth="yes"/>
      <point x="79" y="0"/>
      <point x="30" y="97"/>
      <point x="30" y="141" type="curve" smooth="yes"/>
    </contour>
    <contour>
      <point x="243" y="-1" type="line"/>
      <point x="243" y="116" type="line"/>
      <point x="249" y="116" type="line" smooth="yes"/>
      <point x="251" y="116"/>
      <point x="272" y="119"/>
      <point x="277" y="132" type="curve" smooth="yes"/>
      <point x="281" y="140"/>
      <point x="281" y="146"/>
      <point x="281" y="156" type="curve" smooth="yes"/>
      <point x="281" y="186" type="line"/>
      <point x="392" y="144" type="line"/>
      <point x="392" y="140" type="line" smooth="yes"/>
      <point x="392" y="68"/>
      <point x="323" y="-1"/>
      <point x="250" y="-1" type="curve" smooth="yes"/>
    </contour>
    <contour>
      <point x="266" y="383" type="curve" smooth="yes"/>
      <point x="261" y="397"/>
      <point x="239" y="399"/>
      <point x="239" y="399" type="curve" smooth="yes"/>
      <point x="238" y="399"/>
      <point x="237" y="399"/>
      <point x="236" y="399" type="curve" smooth="yes"/>
      <point x="233" y="399" type="line"/>
      <point x="233" y="516" type="line"/>
      <point x="239" y="516" type="line" smooth="yes"/>
      <point x="312" y="516"/>
      <point x="381" y="448"/>
      <point x="381" y="376" type="curve" smooth="yes"/>
      <point x="381" y="372" type="line"/>
      <point x="270" y="330" type="line"/>
      <point x="270" y="360" type="line" smooth="yes"/>
      <point x="270" y="370"/>
      <point x="270" y="375"/>
    </contour>
  </outline>
</glyph>
<glyph name="g" format="1">
  <advance width="415"/>
  <unicode hex="0067"/>
  <outline>
    <contour>
      <point x="189" y="516" type="curve" smooth="yes"/>
      <point x="192" y="516" type="line"/>
      <point x="192" y="403" type="line"/>
      <point x="189" y="403" type="line" smooth="yes"/>
      <point x="157" y="403"/>
      <point x="150" y="378"/>
      <point x="150" y="375" type="curve" smooth="yes"/>
      <point x="150" y="140" type="line" smooth="yes"/>
      <point x="150" y="137"/>
      <point x="158" y="112"/>
      <point x="189" y="112" type="curve" smooth="yes"/>
      <point x="192" y="112" type="line"/>
      <point x="192" y="-1" type="line"/>
      <point x="189" y="-1" type="line" smooth="yes"/>
      <point x="84" y="-1"/>
      <point x="35" y="96"/>
      <point x="35" y="139" type="curve" smooth="yes"/>
      <point x="35" y="378" type="line" smooth="yes"/>
      <point x="36" y="422"/>
      <point x="85" y="516"/>
    </contour>
    <contour>
      <point x="236" y="-181" type="curve" smooth="yes"/>
      <point x="26" y="-181" type="line"/>
      <point x="54" y="-69" type="line"/>
      <point x="234" y="-69" type="line" smooth="yes"/>
      <point x="265" y="-68"/>
      <point x="272" y="-43"/>
      <point x="272" y="-40" type="curve" smooth="yes"/>
      <point x="272" y="3" type="line"/>
      <point x="260" y="0"/>
      <point x="248" y="-1"/>
      <point x="234" y="-1" type="curve" smooth="yes"/>
      <point x="231" y="-1" type="line"/>
      <point x="231" y="109" type="line"/>
      <point x="234" y="109" type="line" smooth="yes"/>
      <point x="265" y="110"/>
      <point x="272" y="136"/>
      <point x="272" y="139" type="curve" smooth="yes"/>
      <point x="272" y="374" type="line" smooth="yes"/>
      <point x="272" y="377"/>
      <point x="265" y="403"/>
      <point x="234" y="403" type="curve" smooth="yes"/>
      <point x="231" y="403" type="line"/>
      <point x="231" y="516" type="line"/>
      <point x="234" y="516" type="line" smooth="yes"/>
      <point x="247" y="516"/>
      <point x="261" y="514"/>
      <point x="272" y="511" type="curve"/>
      <point x="272" y="516" type="line"/>
      <point x="389" y="516" type="line"/>
      <point x="389" y="-40" type="line" smooth="yes"/>
      <point x="389" y="-83"/>
      <point x="339" y="-180"/>
    </contour>
  </outline>
</glyph>
<glyph name="k" format="1">
  <advance width="452"/>
  <unicode hex="006B"/>
  <outline>
    <contour>
      <point x="296" y="0" type="line"/>
      <point x="183" y="257" type="line"/>
      <point x="295" y="514" type="line"/>
      <point x="428" y="514" type="line"/>
      <point x="313" y="257" type="line"/>
      <point x="428" y="0" type="line"/>
    </contour>
    <contour>
      <point x="155" y="0" type="line"/>
      <point x="30" y="0" type="line"/>
      <point x="30" y="698" type="line"/>
      <point x="155" y="698" type="line"/>
    </contour>
  </outline>
</glyph>
<glyph name="u" format="1">
  <advance width="434"/>
  <unicode hex="0075"/>
  <outline>
    <contour>
      <point x="30" y="514" type="line"/>
      <point x="154" y="514" type="line"/>
      <point x="154" y="142" type="line" smooth="yes"/>
      <point x="154" y="139"/>
      <point x="160" y="116"/>
      <point x="191" y="116" type="curve" smooth="yes"/>
      <point x="196" y="116" type="line"/>
      <point x="196" y="-5" type="line"/>
      <point x="191" y="-5" type="line" smooth="yes"/>
      <point x="84" y="-5"/>
      <point x="30" y="89"/>
      <point x="30" y="137" type="curve" smooth="yes"/>
    </contour>
    <contour>
      <point x="238" y="116" type="line"/>
      <point x="243" y="116" type="line" smooth="yes"/>
      <point x="274" y="116"/>
      <point x="280" y="140"/>
      <point x="280" y="142" type="curve" smooth="yes"/>
      <point x="280" y="514" type="line"/>
      <point x="404" y="514" type="line"/>
      <point x="404" y="137" type="line" smooth="yes"/>
      <point x="404" y="92"/>
      <point x="350" y="-5"/>
      <point x="243" y="-5" type="curve" smooth="yes"/>
      <point x="238" y="-5" type="line"/>
    </contour>
  </outline>
</glyph>
<glyph name="w" format="1">
  <advance width="577"/>
  <unicode hex="0077"/>
  <outline>
    <contour>
      <point x="443" y="516" type="line"/>
      <point x="569" y="515" type="line"/>
      <point x="471" y="208" type="line"/>
      <point x="463" y="208" type="line"/>
      <point x="407" y="394" type="line"/>
    </contour>
    <contour>
      <point x="348" y="0" type="line"/>
      <point x="190" y="515" type="line"/>
      <point x="328" y="516" type="line"/>
      <point x="449" y="120" type="line"/>
      <point x="412" y="0" type="line"/>
    </contour>
    <contour>
      <point x="160" y="0" type="line"/>
      <point x="8" y="515" type="line"/>
      <point x="144" y="516" type="line"/>
      <point x="261" y="120" type="line"/>
      <point x="222" y="0" type="line"/>
    </contour>
  </outline>
</glyph>
<glyph name="bar" format="1">
  <advance width="205"/>
  <unicode hex="007C"/>
  <outline>
    <contour>
      <point x="50" y="754" type="line"/>
      <point x="155" y="754" type="line"/>
      <point x="155" y="-134" type="line"/>
      <point x="50" y="-134" type="line"/>
    </contour>
  </outline>
</glyph>
<glyph name="braceright" format="1">
  <advance width="407"/>
  <unicode hex="007D"/>
  <outline>
    <contour>
      <point x="100" y="735" type="line"/>
      <point x="209" y="735"/>
      <point x="295" y="715"/>
      <point x="295" y="504" type="curve" smooth="yes"/>
      <point x="295" y="408" type="line" smooth="yes"/>
      <point x="296" y="370"/>
      <point x="321" y="363"/>
      <point x="357" y="348" type="curve"/>
      <point x="321" y="329"/>
      <point x="295" y="322"/>
      <point x="295" y="290" type="curve" smooth="yes"/>
      <point x="295" y="192" type="line" smooth="yes"/>
      <point x="295" y="-31"/>
      <point x="207" y="-38"/>
      <point x="118" y="-38" type="curve" smooth="yes"/>
      <point x="112" y="-38"/>
      <point x="106" y="-38"/>
      <point x="100" y="-38" type="curve"/>
      <point x="100" y="61" type="line"/>
      <point x="154" y="61"/>
      <point x="168" y="87"/>
      <point x="168" y="208" type="curve" smooth="yes"/>
      <point x="168" y="304" type="line" smooth="yes"/>
      <point x="168" y="325"/>
      <point x="187" y="340"/>
      <point x="212" y="348" type="curve"/>
      <point x="188" y="354"/>
      <point x="168" y="366"/>
      <point x="168" y="383" type="curve" smooth="yes"/>
      <point x="168" y="384" type="line"/>
      <point x="168" y="469" type="line" smooth="yes"/>
      <point x="167" y="591"/>
      <point x="168" y="635"/>
      <point x="100" y="635" type="curve"/>
    </contour>
  </outline>
</glyph>
<glyph name="exclamdown" format="1">
  <advance width="210"/>
  <unicode hex="00A1"/>
  <outline>
    <contour>
      <point x="38" y="534" type="line"/>
      <point x="167" y="534" type="line"/>
      <point x="167" y="0" type="line"/>
      <point x="38" y="0" type="line"/>
    </contour>
    <contour>
      <point x="26" y="647" type="curve" smooth="yes"/>
      <point x="26" y="689"/>
      <point x="59" y="722"/>
      <point x="101" y="722" type="curve" smooth="yes"/>
      <point x="143" y="722"/>
      <point x="176" y="689"/>
      <point x="176" y="647" type="curve" smooth="yes"/>
      <point x="176" y="605"/>
      <point x="143" y="571"/>
      <point x="101" y="571" type="curve" smooth="yes"/>
      <point x="59" y="571"/>
      <point x="26" y="605"/>
    </contour>
  </outline>
</glyph>
<glyph name="section" format="1">
  <advance width="547"/>
  <unicode hex="00A7"/>
  <outline>
    <contour>
      <point x="265" y="759" type="curve" smooth="yes"/>
      <point x="377" y="759" type="line"/>
      <point x="377" y="627" type="line"/>
      <point x="273" y="627" type="line" smooth="yes"/>
      <point x="240" y="627"/>
      <point x="219" y="606"/>
      <point x="219" y="576" type="curve" smooth="yes"/>
      <point x="219" y="555"/>
      <point x="230" y="540"/>
      <point x="246" y="527" type="curve"/>
      <point x="246" y="372" type="line"/>
      <point x="233" y="377"/>
      <point x="221" y="381"/>
      <point x="211" y="386" type="curve" smooth="yes"/>
      <point x="202" y="391"/>
      <point x="193" y="395"/>
      <point x="184" y="400" type="curve"/>
      <point x="174" y="392"/>
      <point x="167" y="380"/>
      <point x="167" y="357" type="curve" smooth="yes"/>
      <point x="167" y="314"/>
      <point x="204" y="290"/>
      <point x="246" y="272" type="curve"/>
      <point x="246" y="125" type="line"/>
      <point x="215" y="138"/>
      <point x="181" y="150"/>
      <point x="154" y="166" type="curve" smooth="yes"/>
      <point x="93" y="202"/>
      <point x="26" y="249"/>
      <point x="26" y="351" type="curve" smooth="yes"/>
      <point x="26" y="413"/>
      <point x="54" y="465"/>
      <point x="98" y="499" type="curve"/>
      <point x="91" y="519"/>
      <point x="88" y="543"/>
      <point x="88" y="571" type="curve" smooth="yes"/>
      <point x="88" y="710"/>
      <point x="197" y="759"/>
    </contour>
    <contour>
      <point x="363" y="223" type="curve"/>
      <point x="373" y="231"/>
      <point x="380" y="243"/>
      <point x="380" y="266" type="curve" smooth="yes"/>
      <point x="380" y="310"/>
      <point x="343" y="333"/>
      <point x="300" y="351" type="curve"/>
      <point x="300" y="498" type="line"/>
      <point x="331" y="485"/>
      <point x="365" y="473"/>
      <point x="393" y="457" type="curve" smooth="yes"/>
      <point x="454" y="421"/>
      <point x="521" y="374"/>
      <point x="521" y="272" type="curve" smooth="yes"/>
      <point x="521" y="210"/>
      <point x="493" y="158"/>
      <point x="449" y="124" type="curve"/>
      <point x="456" y="104"/>
      <point x="459" y="80"/>
      <point x="459" y="52" type="curve" smooth="yes"/>
      <point x="459" y="-87"/>
      <point x="350" y="-136"/>
      <point x="282" y="-136" type="curve" smooth="yes"/>
      <point x="170" y="-136" type="line"/>
      <point x="170" y="-4" type="line"/>
      <point x="274" y="-4" type="line" smooth="yes"/>
      <point x="307" y="-4"/>
      <point x="328" y="17"/>
      <point x="328" y="47" type="curve" smooth="yes"/>
      <point x="328" y="68"/>
      <point x="317" y="84"/>
      <point x="300" y="97" type="curve"/>
      <point x="300" y="252" type="line"/>
      <point x="313" y="247"/>
      <point x="325" y="242"/>
      <point x="336" y="237" type="curve" smooth="yes"/>
      <point x="345" y="232"/>
      <point x="354" y="228"/>
    </contour>
  </outline>
</glyph>
<glyph name="acute" format="1">
  <advance width="263"/>
  <unicode hex="00B4"/>
  <outline>
    <contour>
      <point x="141" y="605" type="line"/>
      <point x="50" y="605" type="line"/>
      <point x="87" y="757" type="line"/>
      <point x="214" y="757" type="line"/>
    </contour>
  </outline>
</glyph>
<glyph name="paragraph" format="1">
  <advance width="444"/>
  <unicode hex="00B6"/>
  <outline>
    <contour>
      <point x="418" y="705" type="line"/>
      <point x="418" y="-5" type="line"/>
      <point x="335" y="-5" type="line"/>
      <point x="335" y="705" type="line"/>
    </contour>
    <contour>
      <point x="278" y="705" type="curve"/>
      <point x="278" y="-5" type="line"/>
      <point x="195" y="-5" type="line"/>
      <point x="195" y="329" type="line"/>
      <point x="91" y="329"/>
      <point x="26" y="403"/>
      <point x="26" y="517" type="curve" smooth="yes"/>
      <point x="26" y="617"/>
      <point x="93" y="705"/>
      <point x="195" y="705" type="curve" smooth="yes"/>
      <point x="223" y="705"/>
      <point x="250" y="705"/>
    </contour>
  </outline>
</glyph>
<glyph name="guillemotright" format="1">
  <advance width="414"/>
  <unicode hex="00BB"/>
  <outline>
    <contour>
      <point x="237" y="477" type="line"/>
      <point x="448" y="321" type="line"/>
      <point x="448" y="259" type="line"/>
      <point x="237" y="102" type="line"/>
      <point x="237" y="224" type="line"/>
      <point x="326" y="292" type="line"/>
      <point x="237" y="352" type="line"/>
    </contour>
    <contour>
      <point x="26" y="477" type="line"/>
      <point x="237" y="321" type="line"/>
      <point x="237" y="259" type="line"/>
      <point x="26" y="102" type="line"/>
      <point x="26" y="224" type="line"/>
      <point x="115" y="292" type="line"/>
      <point x="26" y="352" type="line"/>
    </contour>
  </outline>
</glyph>
<glyph name="multiply" format="1">
  <advance width="697"/>
  <unicode hex="00D7"/>
  <outline>
    <contour>
      <point x="260" y="417" type="line"/>
      <point x="100" y="578" type="line"/>
      <point x="189" y="667" type="line"/>
      <point x="349" y="507" type="line"/>
      <point x="508" y="666" type="line"/>
      <point x="597" y="577" type="line"/>
      <point x="438" y="418" type="line"/>
      <point x="597" y="259" type="line"/>
      <point x="507" y="170" type="line"/>
      <point x="349" y="328" type="line"/>
      <point x="190" y="168" type="line"/>
      <point x="101" y="257" type="line"/>
    </contour>
  </outline>
</glyph>
<glyph name="Oslash" format="1">
  <advance width="662"/>
  <unicode hex="00D8"/>
  <outline>
    <contour>
      <point x="584" y="658" type="line"/>
      <point x="662" y="570" type="line"/>
      <point x="556" y="474" type="line"/>
      <point x="556" y="195" type="line" smooth="yes"/>
      <point x="556" y="51"/>
      <point x="419" y="-5"/>
      <point x="359" y="-5" type="curve"/>
      <point x="359" y="137" type="line"/>
      <point x="364" y="137"/>
      <point x="414" y="149"/>
      <point x="415" y="195" type="curve" smooth="yes"/>
      <point x="415" y="347" type="line"/>
      <point x="249" y="197" type="line"/>
      <point x="249" y="195" type="line" smooth="yes"/>
      <point x="249" y="149"/>
      <point x="299" y="137"/>
      <point x="304" y="137" type="curve"/>
      <point x="304" y="-5" type="line"/>
      <point x="261" y="-5"/>
      <point x="178" y="24"/>
      <point x="135" y="94" type="curve"/>
      <point x="78" y="43" type="line"/>
      <point x="0" y="131" type="line"/>
      <point x="108" y="228" type="line"/>
      <point x="108" y="524" type="line" smooth="yes"/>
      <point x="108" y="584"/>
      <point x="173" y="705"/>
      <point x="305" y="705" type="curve"/>
      <point x="305" y="564" type="line"/>
      <point x="259" y="563"/>
      <point x="249" y="513"/>
      <point x="249" y="508" type="curve" smooth="yes"/>
      <point x="249" y="356" type="line"/>
      <point x="415" y="505" type="line"/>
      <point x="415" y="508" type="line" smooth="yes"/>
      <point x="415" y="513"/>
      <point x="405" y="563"/>
      <point x="359" y="564" type="curve"/>
      <point x="359" y="705" type="line"/>
      <point x="441" y="705"/>
      <point x="497" y="658"/>
      <point x="528" y="607" type="curve"/>
    </contour>
  </outline>
</glyph>
<glyph name="igrave" format="1">
  <advance width="199"/>
  <unicode hex="00EC"/>
  <outline>
    <contour>
      <point x="54" y="577" type="line"/>
      <point x="-20" y="729" type="line"/>
      <point x="108" y="729" type="line"/>
      <point x="144" y="577" type="line"/>
    </contour>
    <contour>
      <point x="161" y="0" type="line"/>
      <point x="39" y="0" type="line"/>
      <point x="39" y="516" type="line"/>
      <point x="161" y="516" type="line"/>
    </contour>
  </outline>
</glyph>
<glyph name="eth" format="1">
  <advance width="420"/>
  <unicode hex="00F0"/>
  <outline>
    <contour>
      <point x="28" y="376" type="line" smooth="yes"/>
      <point x="28" y="421"/>
      <point x="79" y="516"/>
      <point x="186" y="516" type="curve" smooth="yes"/>
      <point x="192" y="516" type="line"/>
      <point x="192" y="398" type="line"/>
      <point x="186" y="398" type="line" smooth="yes"/>
      <point x="153" y="398"/>
      <point x="148" y="373"/>
      <point x="148" y="363" type="curve" smooth="yes"/>
      <point x="148" y="154" type="line" smooth="yes"/>
      <point x="148" y="135"/>
      <point x="156" y="117"/>
      <point x="186" y="117" type="curve" smooth="yes"/>
      <point x="192" y="117" type="line"/>
      <point x="192" y="-1" type="line"/>
      <point x="186" y="-1" type="line" smooth="yes"/>
      <point x="78" y="-1"/>
      <point x="28" y="97"/>
      <point x="28" y="141" type="curve" smooth="yes"/>
    </contour>
    <contour>
      <point x="267" y="558" type="curve"/>
      <point x="210" y="541" type="line"/>
      <point x="192" y="598" type="line"/>
      <point x="242" y="614" type="line"/>
      <point x="230" y="627"/>
      <point x="214" y="637"/>
      <point x="192" y="647" type="curve"/>
      <point x="192" y="714" type="line"/>
      <point x="250" y="703"/>
      <point x="297" y="679"/>
      <point x="330" y="641" type="curve"/>
      <point x="380" y="657" type="line"/>
      <point x="398" y="599" type="line"/>
      <point x="364" y="588" type="line"/>
      <point x="383" y="548"/>
      <point x="392" y="500"/>
      <point x="392" y="442" type="curve" smooth="yes"/>
      <point x="392" y="376" type="line"/>
      <point x="392" y="364" type="line"/>
      <point x="392" y="141" type="line" smooth="yes"/>
      <point x="392" y="96"/>
      <point x="343" y="-1"/>
      <point x="239" y="-1" type="curve" smooth="yes"/>
      <point x="233" y="-1" type="line"/>
      <point x="233" y="117" type="line"/>
      <point x="239" y="117" type="line" smooth="yes"/>
      <point x="270" y="118"/>
      <point x="275" y="141"/>
      <point x="275" y="152" type="curve" smooth="yes"/>
      <point x="275" y="363" type="line" smooth="yes"/>
      <point x="275" y="380"/>
      <point x="269" y="398"/>
      <point x="239" y="398" type="curve" smooth="yes"/>
      <point x="233" y="398" type="line"/>
      <point x="233" y="516" type="line"/>
      <point x="239" y="516" type="line" smooth="yes"/>
      <point x="251" y="516"/>
      <point x="262" y="515"/>
      <point x="273" y="512" type="curve"/>
      <point x="271" y="530"/>
      <point x="270" y="545"/>
    </contour>
  </outline>
</glyph>
<glyph name="Lslash" format="1">
  <advance width="530"/>
  <unicode hex="0141"/>
  <outline>
    <contour>
      <point x="348" y="553" type="line"/>
      <point x="420" y="460" type="line"/>
      <point x="270" y="343" type="line"/>
      <point x="270" y="139" type="line"/>
      <point x="505" y="139" type="line"/>
      <point x="505" y="0" type="line"/>
      <point x="129" y="0" type="line"/>
      <point x="129" y="233" type="line"/>
      <point x="98" y="209" type="line"/>
      <point x="26" y="302" type="line"/>
      <point x="129" y="382" type="line"/>
      <point x="129" y="700" type="line"/>
      <point x="270" y="700" type="line"/>
      <point x="270" y="492" type="line"/>
    </contour>
  </outline>
</glyph>
<glyph name="lslash" format="1">
  <advance width="424"/>
  <unicode hex="0142"/>
  <outline>
    <contour>
      <point x="278" y="0" type="line"/>
      <point x="147" y="0" type="line"/>
      <point x="147" y="698" type="line"/>
      <point x="278" y="698" type="line"/>
    </contour>
    <contour>
      <point x="326" y="536" type="line"/>
      <point x="398" y="443" type="line"/>
      <point x="98" y="209" type="line"/>
      <point x="26" y="302" type="line"/>
    </contour>
  </outline>
</glyph>
<glyph name="tilde" format="1">
  <advance width="333"/>
  <unicode hex="02DC"/>
  <outline>
    <contour>
      <point x="307" y="114" type="line"/>
      <point x="273" y="93"/>
      <point x="246" y="86"/>
      <point x="223" y="86" type="curve" smooth="yes"/>
      <point x="170" y="86"/>
      <point x="140" y="126"/>
      <point x="92" y="126" type="curve" smooth="yes"/>
      <point x="74" y="126"/>
      <point x="52" y="120"/>
      <point x="26" y="104" type="curve"/>
      <point x="26" y="206" type="line"/>
      <point x="54" y="222"/>
      <point x="77" y="228"/>
      <point x="96" y="228" type="curve" smooth="yes"/>
      <point x="147" y="228"/>
      <point x="176" y="187"/>
      <point x="227" y="187" type="curve" smooth="yes"/>
      <point x="249" y="187"/>
      <point x="274" y="195"/>
      <point x="307" y="215" type="curve"/>
    </contour>
  </outline>
</glyph>
<glyph name="guilsinglright" format="1">
  <advance width="338"/>
  <unicode hex="203A"/>
  <outline>
    <contour>
      <point x="181" y="500" type="line"/>
      <point x="312" y="292" type="line"/>
      <point x="181" y="79" type="line"/>
      <point x="26" y="79" type="line"/>
      <point x="157" y="292" type="line"/>
      <point x="26" y="500" type="line"/>
    </contour>
  </outline>
</glyph>
<glyph name="quotedbl.alt" format="1">
  <advance width="359"/>
  <outline>
    <contour>
      <point x="333" y="476" type="line"/>
      <point x="206" y="476" type="line"/>
      <point x="206" y="700" type="line"/>
      <point x="333" y="700" type="line"/>
    </contour>
    <contour>
      <point x="153" y="476" type="line"/>
      <point x="26" y="476" type="line"/>
      <point x="26" y="700" type="line"/>
      <point x="153" y="700" type="line"/>
    </contour>
  </outline>
</glyph>
